<svg xmlns="http://www.w3.org/2000/svg" width="191.961" height="76.608" viewBox="0 0 191.961 76.608">
  <g id="logo-cmpc" style="mix-blend-mode: normal;isolation: isolate">
    <g id="Grupo_20907" data-name="Grupo 20907" transform="translate(0 34.38)">
      <path id="Trazado_12019" data-name="Trazado 12019" d="M55.983,187.765a12.966,12.966,0,0,1-5.245-5.4,17.358,17.358,0,0,1-1.838-8.193,17.03,17.03,0,0,1,1.953-8.27,13.564,13.564,0,0,1,5.436-5.551,16.28,16.28,0,0,1,8.078-1.953,17.487,17.487,0,0,1,4.824.689,16.838,16.838,0,0,1,4.288,1.838,3.84,3.84,0,0,1,1.953,3.254,3.445,3.445,0,0,1-.651,2.182,2.085,2.085,0,0,1-1.685.842,3.938,3.938,0,0,1-1.417-.306,13.368,13.368,0,0,1-1.493-.727,16.115,16.115,0,0,0-2.6-1.263,7.993,7.993,0,0,0-2.833-.459,7.306,7.306,0,0,0-5.9,2.489c-1.378,1.646-2.067,4.058-2.067,7.159q0,4.594,2.067,7.121a7.254,7.254,0,0,0,5.9,2.489,7.706,7.706,0,0,0,2.757-.459,23.107,23.107,0,0,0,2.68-1.263,11.069,11.069,0,0,1,1.608-.842,3.482,3.482,0,0,1,1.34-.268,2.068,2.068,0,0,1,1.646.842,3.348,3.348,0,0,1,.689,2.144,3.4,3.4,0,0,1-.459,1.8,4.385,4.385,0,0,1-1.493,1.378,17.494,17.494,0,0,1-4.441,1.953,19.555,19.555,0,0,1-5.168.689A15.976,15.976,0,0,1,55.983,187.765Z" transform="translate(-48.9 -158.323)" fill="#575756"/>
      <path id="Trazado_12020" data-name="Trazado 12020" d="M174.839,161.21c1.761,1.953,2.6,5.092,2.6,9.456v15.123a3.5,3.5,0,0,1-1.072,2.757,4.5,4.5,0,0,1-5.551,0,3.443,3.443,0,0,1-1.072-2.757V170.666c0-2.259-.383-3.867-1.187-4.824a4.539,4.539,0,0,0-3.675-1.455,5.959,5.959,0,0,0-4.786,2.067,8.344,8.344,0,0,0-1.8,5.628v13.706a3.5,3.5,0,0,1-1.072,2.757,4.448,4.448,0,0,1-5.513,0,3.464,3.464,0,0,1-1.11-2.757V170.666c0-2.259-.383-3.867-1.187-4.824a4.539,4.539,0,0,0-3.675-1.455,5.959,5.959,0,0,0-4.786,2.067,8.331,8.331,0,0,0-1.761,5.628v13.706a3.518,3.518,0,0,1-1.11,2.757,4.448,4.448,0,0,1-5.513,0,3.443,3.443,0,0,1-1.072-2.757V161.975a3.272,3.272,0,0,1,1.11-2.642,4.132,4.132,0,0,1,2.757-.919,3.824,3.824,0,0,1,2.6.881A3.236,3.236,0,0,1,139,161.86v1.493a9.644,9.644,0,0,1,3.79-3.752,11.409,11.409,0,0,1,5.436-1.3c4.518,0,7.542,1.876,9.035,5.666a10.327,10.327,0,0,1,3.982-4.135,11.564,11.564,0,0,1,5.972-1.531C170.551,158.3,173.077,159.257,174.839,161.21Z" transform="translate(-99.877 -158.262)" fill="#575756"/>
      <path id="Trazado_12021" data-name="Trazado 12021" d="M289.758,160.191a13.269,13.269,0,0,1,4.747,5.551,19.572,19.572,0,0,1,1.685,8.27,18.974,18.974,0,0,1-1.685,8.193,12.5,12.5,0,0,1-4.709,5.4,12.858,12.858,0,0,1-6.968,1.914,11.954,11.954,0,0,1-5.7-1.34,9.373,9.373,0,0,1-3.867-3.752v12.557a3.207,3.207,0,0,1-1.034,2.527,4.5,4.5,0,0,1-5.551-.077,3.326,3.326,0,0,1-1.072-2.6V161.952a3.46,3.46,0,0,1,1.034-2.642,4.314,4.314,0,0,1,5.513,0,3.46,3.46,0,0,1,1.034,2.642v1.531a9.591,9.591,0,0,1,3.905-3.905A11.993,11.993,0,0,1,282.9,158.2,12.807,12.807,0,0,1,289.758,160.191Zm-3.293,20.9c1.34-1.646,2.029-4.02,2.029-7.044a11.656,11.656,0,0,0-2.029-7.274,6.811,6.811,0,0,0-5.666-2.6,6.884,6.884,0,0,0-5.7,2.527c-1.34,1.685-1.991,4.1-1.991,7.2,0,3.063.651,5.475,1.991,7.121a7.739,7.739,0,0,0,11.371.077Z" transform="translate(-182.636 -158.2)" fill="#575756"/>
      <path id="Trazado_12022" data-name="Trazado 12022" d="M361.683,187.765a12.966,12.966,0,0,1-5.245-5.4,17.359,17.359,0,0,1-1.838-8.193,17.03,17.03,0,0,1,1.953-8.27,13.564,13.564,0,0,1,5.436-5.551,16.28,16.28,0,0,1,8.078-1.953,17.487,17.487,0,0,1,4.824.689,16.839,16.839,0,0,1,4.288,1.838,3.84,3.84,0,0,1,1.953,3.254,3.445,3.445,0,0,1-.651,2.182,2.085,2.085,0,0,1-1.685.842,3.939,3.939,0,0,1-1.417-.306,13.368,13.368,0,0,1-1.493-.727,16.115,16.115,0,0,0-2.6-1.263,7.993,7.993,0,0,0-2.833-.459,7.306,7.306,0,0,0-5.9,2.489c-1.378,1.646-2.067,4.058-2.067,7.159q0,4.594,2.067,7.121a7.254,7.254,0,0,0,5.9,2.489,7.706,7.706,0,0,0,2.757-.459,23.106,23.106,0,0,0,2.68-1.263,11.071,11.071,0,0,1,1.608-.842,3.482,3.482,0,0,1,1.34-.268,2.068,2.068,0,0,1,1.646.842,3.348,3.348,0,0,1,.689,2.144,3.4,3.4,0,0,1-.459,1.8,4.385,4.385,0,0,1-1.493,1.378,17.494,17.494,0,0,1-4.441,1.953,19.555,19.555,0,0,1-5.168.689A15.976,15.976,0,0,1,361.683,187.765Z" transform="translate(-237.563 -158.323)" fill="#575756"/>
    </g>
    <g id="Grupo_20908" data-name="Grupo 20908" transform="translate(146.593 59.61)">
      <path id="Trazado_12023" data-name="Trazado 12023" d="M433.829,224.1a2.259,2.259,0,0,1,.536.077,2.161,2.161,0,0,1,.919.574,1.7,1.7,0,0,1,.306.421,1.925,1.925,0,0,1,.191.5,2.192,2.192,0,0,1,0,1.149,1.925,1.925,0,0,1-.191.5,1.7,1.7,0,0,1-.306.421,4.062,4.062,0,0,1-.421.345c-.153.077-.306.153-.5.23a2.585,2.585,0,0,1-.536.077,2.261,2.261,0,0,1-.536-.077,2.162,2.162,0,0,1-.919-.574,1.7,1.7,0,0,1-.306-.421,1.923,1.923,0,0,1-.191-.5,2.191,2.191,0,0,1,0-1.149,1.923,1.923,0,0,1,.191-.5,1.7,1.7,0,0,1,.306-.421,4.074,4.074,0,0,1,.421-.345c.153-.077.306-.153.5-.23A1.217,1.217,0,0,1,433.829,224.1Zm0,3.943a2.241,2.241,0,0,0,.5-.077,1.416,1.416,0,0,0,.421-.191,2.7,2.7,0,0,0,.345-.268,1.376,1.376,0,0,0,.268-.383,1.656,1.656,0,0,0,.191-.459,1.938,1.938,0,0,0,.077-.5,1.553,1.553,0,0,0-.153-.727,1.849,1.849,0,0,0-1.646-1.11,2.241,2.241,0,0,0-.5.077,1.415,1.415,0,0,0-.421.191,1.32,1.32,0,0,0-.345.306,1.376,1.376,0,0,0-.268.383,1.659,1.659,0,0,0-.191.459,1.656,1.656,0,0,0,0,1,2.344,2.344,0,0,0,.191.459,1.375,1.375,0,0,0,.268.383,2.1,2.1,0,0,0,.345.268,1.416,1.416,0,0,0,.421.191A2.163,2.163,0,0,1,433.829,228.043Zm-.038-3.139a1.183,1.183,0,0,1,.727.191.643.643,0,0,1,.23.536.61.61,0,0,1-.153.459.919.919,0,0,1-.459.268c.038.038.077.038.077.077.038.038.038.077.077.115l.651.957h-.421a.2.2,0,0,1-.153-.077l-.574-.881c0-.038-.038-.038-.077-.077-.038,0-.077-.038-.115-.038h-.191v1.034h-.459V224.9Zm-.038,1.225a.816.816,0,0,0,.459-.115.468.468,0,0,0,.115-.345.345.345,0,0,0-.038-.191c0-.038-.038-.115-.077-.115a.2.2,0,0,0-.153-.077c-.077,0-.153-.038-.23-.038h-.383v.881Z" transform="translate(-431.8 -224.1)" fill="#575756"/>
    </g>
    <g id="Grupo_20909" data-name="Grupo 20909" transform="translate(150.651)">
      <path id="Trazado_12024" data-name="Trazado 12024" d="M446.305,105.7c-2.221,3.025-3.407,8-3.905,13.821a22.827,22.827,0,0,0,9.112,7.006,141.54,141.54,0,0,1,3.714-15.85C451.091,108.38,446.305,105.7,446.305,105.7Z" transform="translate(-442.4 -91.42)" fill="#398336"/>
      <path id="Trazado_12025" data-name="Trazado 12025" d="M480.557,68.4c-4.594,3.867-8.04,10.873-10.643,19.257a128.073,128.073,0,0,0-3.714,15.85,22.024,22.024,0,0,0,4.747,1.455,21.727,21.727,0,0,0,3.216.383c4.1-11.485,9.188-22.588,15.123-29.939C485.151,72.343,480.557,68.4,480.557,68.4Z" transform="translate(-457.088 -68.4)" fill="#559d33"/>
      <path id="Trazado_12026" data-name="Trazado 12026" d="M507.636,72.6a30.687,30.687,0,0,0-5.513,5.436C496.15,85.387,491.1,96.49,487,107.975c.383,0,.766.038,1.149.038a17.732,17.732,0,0,0,2.489-.153,23.028,23.028,0,0,0,17-35.26Z" transform="translate(-469.925 -70.992)" fill="#8ab525"/>
    </g>
  </g>
</svg>
